<mxfile host="Electron" agent="Mozilla/5.0 (Windows NT 10.0; Win64; x64) AppleWebKit/537.36 (KHTML, like Gecko) draw.io/28.0.4 Chrome/138.0.7204.97 Electron/37.2.1 Safari/537.36" version="28.0.4">
  <diagram name="Page-1" id="JPtqeNnXDtY3mBat09gB">
    <mxGraphModel dx="1348" dy="668" grid="1" gridSize="10" guides="1" tooltips="1" connect="1" arrows="1" fold="1" page="1" pageScale="1" pageWidth="850" pageHeight="1100" math="0" shadow="0">
      <root>
        <mxCell id="0" />
        <mxCell id="1" parent="0" />
        <mxCell id="yyBlptRPI4nCSIkhDEWp-54" value="Fix Engine" style="whiteSpace=wrap;strokeWidth=2;" vertex="1" parent="1">
          <mxGeometry x="20" y="1016" width="969" height="104" as="geometry" />
        </mxCell>
        <mxCell id="yyBlptRPI4nCSIkhDEWp-55" value="Clone GitHub Repository" style="whiteSpace=wrap;strokeWidth=2;" vertex="1" parent="1">
          <mxGeometry x="369" y="320" width="235" height="54" as="geometry" />
        </mxCell>
        <mxCell id="yyBlptRPI4nCSIkhDEWp-56" value="Fetch SonarQube Report (JSON)" style="whiteSpace=wrap;strokeWidth=2;" vertex="1" parent="1">
          <mxGeometry x="201" y="424" width="260" height="78" as="geometry" />
        </mxCell>
        <mxCell id="yyBlptRPI4nCSIkhDEWp-57" value="Fetch Fortify Scan Results (FPR/XML/JSON)" style="whiteSpace=wrap;strokeWidth=2;" vertex="1" parent="1">
          <mxGeometry x="511" y="424" width="260" height="78" as="geometry" />
        </mxCell>
        <mxCell id="yyBlptRPI4nCSIkhDEWp-58" value="Normalize Sonar Issues" style="whiteSpace=wrap;strokeWidth=2;" vertex="1" parent="1">
          <mxGeometry x="220" y="552" width="223" height="54" as="geometry" />
        </mxCell>
        <mxCell id="yyBlptRPI4nCSIkhDEWp-59" value="Normalize Fortify Issues" style="whiteSpace=wrap;strokeWidth=2;" vertex="1" parent="1">
          <mxGeometry x="526" y="552" width="231" height="54" as="geometry" />
        </mxCell>
        <mxCell id="yyBlptRPI4nCSIkhDEWp-60" value="Merge by CWE (UnifiedIssue[])" style="whiteSpace=wrap;strokeWidth=2;" vertex="1" parent="1">
          <mxGeometry x="356" y="656" width="260" height="78" as="geometry" />
        </mxCell>
        <mxCell id="yyBlptRPI4nCSIkhDEWp-61" value="Map CWE to Fix Strategy (from cwe_map.json)" style="whiteSpace=wrap;strokeWidth=2;" vertex="1" parent="1">
          <mxGeometry x="356" y="784" width="260" height="78" as="geometry" />
        </mxCell>
        <mxCell id="yyBlptRPI4nCSIkhDEWp-62" value="Locate Source File &amp; Line" style="whiteSpace=wrap;strokeWidth=2;" vertex="1" parent="1">
          <mxGeometry x="365" y="912" width="243" height="54" as="geometry" />
        </mxCell>
        <mxCell id="yyBlptRPI4nCSIkhDEWp-63" value="Semgrep Autofix" style="whiteSpace=wrap;strokeWidth=2;" vertex="1" parent="1">
          <mxGeometry x="55" y="1041" width="177" height="54" as="geometry" />
        </mxCell>
        <mxCell id="yyBlptRPI4nCSIkhDEWp-64" value="JavaParser Fixer" style="whiteSpace=wrap;strokeWidth=2;" vertex="1" parent="1">
          <mxGeometry x="282" y="1041" width="177" height="54" as="geometry" />
        </mxCell>
        <mxCell id="yyBlptRPI4nCSIkhDEWp-65" value="OpenAI LLM Fixer" style="whiteSpace=wrap;strokeWidth=2;" vertex="1" parent="1">
          <mxGeometry x="549" y="1041" width="184" height="54" as="geometry" />
        </mxCell>
        <mxCell id="yyBlptRPI4nCSIkhDEWp-66" value="Snyk Dependency Fix" style="whiteSpace=wrap;strokeWidth=2;" vertex="1" parent="1">
          <mxGeometry x="744" y="1041" width="210" height="54" as="geometry" />
        </mxCell>
        <mxCell id="yyBlptRPI4nCSIkhDEWp-67" value="Check for Git Changes" style="whiteSpace=wrap;strokeWidth=2;" vertex="1" parent="1">
          <mxGeometry x="377" y="1170" width="219" height="54" as="geometry" />
        </mxCell>
        <mxCell id="yyBlptRPI4nCSIkhDEWp-68" value="Create Fix Branch" style="whiteSpace=wrap;strokeWidth=2;" vertex="1" parent="1">
          <mxGeometry x="392" y="1297" width="188" height="54" as="geometry" />
        </mxCell>
        <mxCell id="yyBlptRPI4nCSIkhDEWp-69" value="Commit Fixed Code" style="whiteSpace=wrap;strokeWidth=2;" vertex="1" parent="1">
          <mxGeometry x="386" y="1401" width="200" height="54" as="geometry" />
        </mxCell>
        <mxCell id="yyBlptRPI4nCSIkhDEWp-70" value="Create Pull Request (GitHub CLI)" style="whiteSpace=wrap;strokeWidth=2;" vertex="1" parent="1">
          <mxGeometry x="356" y="1505" width="260" height="78" as="geometry" />
        </mxCell>
        <mxCell id="yyBlptRPI4nCSIkhDEWp-71" value="Notify Reviewer for Review" style="whiteSpace=wrap;strokeWidth=2;" vertex="1" parent="1">
          <mxGeometry x="359" y="1633" width="254" height="54" as="geometry" />
        </mxCell>
        <mxCell id="yyBlptRPI4nCSIkhDEWp-72" value="" style="curved=1;startArrow=none;endArrow=block;exitX=0.16;exitY=1;entryX=0.5;entryY=0;rounded=0;" edge="1" parent="1" source="yyBlptRPI4nCSIkhDEWp-55" target="yyBlptRPI4nCSIkhDEWp-56">
          <mxGeometry relative="1" as="geometry">
            <Array as="points">
              <mxPoint x="331" y="399" />
            </Array>
          </mxGeometry>
        </mxCell>
        <mxCell id="yyBlptRPI4nCSIkhDEWp-73" value="" style="curved=1;startArrow=none;endArrow=block;exitX=0.84;exitY=1;entryX=0.5;entryY=0;rounded=0;" edge="1" parent="1" source="yyBlptRPI4nCSIkhDEWp-55" target="yyBlptRPI4nCSIkhDEWp-57">
          <mxGeometry relative="1" as="geometry">
            <Array as="points">
              <mxPoint x="641" y="399" />
            </Array>
          </mxGeometry>
        </mxCell>
        <mxCell id="yyBlptRPI4nCSIkhDEWp-74" value="" style="curved=1;startArrow=none;endArrow=block;exitX=0.5;exitY=1;entryX=0.5;entryY=0;rounded=0;" edge="1" parent="1" source="yyBlptRPI4nCSIkhDEWp-56" target="yyBlptRPI4nCSIkhDEWp-58">
          <mxGeometry relative="1" as="geometry">
            <Array as="points" />
          </mxGeometry>
        </mxCell>
        <mxCell id="yyBlptRPI4nCSIkhDEWp-75" value="" style="curved=1;startArrow=none;endArrow=block;exitX=0.5;exitY=1;entryX=0.5;entryY=0;rounded=0;" edge="1" parent="1" source="yyBlptRPI4nCSIkhDEWp-57" target="yyBlptRPI4nCSIkhDEWp-59">
          <mxGeometry relative="1" as="geometry">
            <Array as="points" />
          </mxGeometry>
        </mxCell>
        <mxCell id="yyBlptRPI4nCSIkhDEWp-76" value="" style="curved=1;startArrow=none;endArrow=block;exitX=0.5;exitY=1;entryX=0.14;entryY=0;rounded=0;" edge="1" parent="1" source="yyBlptRPI4nCSIkhDEWp-58" target="yyBlptRPI4nCSIkhDEWp-60">
          <mxGeometry relative="1" as="geometry">
            <Array as="points">
              <mxPoint x="331" y="631" />
            </Array>
          </mxGeometry>
        </mxCell>
        <mxCell id="yyBlptRPI4nCSIkhDEWp-77" value="" style="curved=1;startArrow=none;endArrow=block;exitX=0.5;exitY=1;entryX=0.86;entryY=0;rounded=0;" edge="1" parent="1" source="yyBlptRPI4nCSIkhDEWp-59" target="yyBlptRPI4nCSIkhDEWp-60">
          <mxGeometry relative="1" as="geometry">
            <Array as="points">
              <mxPoint x="641" y="631" />
            </Array>
          </mxGeometry>
        </mxCell>
        <mxCell id="yyBlptRPI4nCSIkhDEWp-78" value="" style="curved=1;startArrow=none;endArrow=block;exitX=0.5;exitY=1;entryX=0.5;entryY=0;rounded=0;" edge="1" parent="1" source="yyBlptRPI4nCSIkhDEWp-60" target="yyBlptRPI4nCSIkhDEWp-61">
          <mxGeometry relative="1" as="geometry">
            <Array as="points" />
          </mxGeometry>
        </mxCell>
        <mxCell id="yyBlptRPI4nCSIkhDEWp-79" value="" style="curved=1;startArrow=none;endArrow=block;exitX=0.5;exitY=1;entryX=0.5;entryY=0;rounded=0;" edge="1" parent="1" source="yyBlptRPI4nCSIkhDEWp-61" target="yyBlptRPI4nCSIkhDEWp-62">
          <mxGeometry relative="1" as="geometry">
            <Array as="points" />
          </mxGeometry>
        </mxCell>
        <mxCell id="yyBlptRPI4nCSIkhDEWp-80" value="" style="curved=1;startArrow=none;endArrow=block;exitX=0;exitY=0.84;entryX=0.5;entryY=0;rounded=0;" edge="1" parent="1" source="yyBlptRPI4nCSIkhDEWp-62" target="yyBlptRPI4nCSIkhDEWp-63">
          <mxGeometry relative="1" as="geometry">
            <Array as="points">
              <mxPoint x="144" y="991" />
            </Array>
          </mxGeometry>
        </mxCell>
        <mxCell id="yyBlptRPI4nCSIkhDEWp-81" value="" style="curved=1;startArrow=none;endArrow=block;exitX=0.25;exitY=1;entryX=0.5;entryY=0;rounded=0;" edge="1" parent="1" source="yyBlptRPI4nCSIkhDEWp-62" target="yyBlptRPI4nCSIkhDEWp-64">
          <mxGeometry relative="1" as="geometry">
            <Array as="points">
              <mxPoint x="371" y="991" />
            </Array>
          </mxGeometry>
        </mxCell>
        <mxCell id="yyBlptRPI4nCSIkhDEWp-82" value="" style="curved=1;startArrow=none;endArrow=block;exitX=0.74;exitY=1;entryX=0.5;entryY=0;rounded=0;" edge="1" parent="1" source="yyBlptRPI4nCSIkhDEWp-62" target="yyBlptRPI4nCSIkhDEWp-65">
          <mxGeometry relative="1" as="geometry">
            <Array as="points">
              <mxPoint x="601" y="991" />
            </Array>
          </mxGeometry>
        </mxCell>
        <mxCell id="yyBlptRPI4nCSIkhDEWp-83" value="" style="curved=1;startArrow=none;endArrow=block;exitX=1;exitY=0.82;entryX=0.5;entryY=0;rounded=0;" edge="1" parent="1" source="yyBlptRPI4nCSIkhDEWp-62" target="yyBlptRPI4nCSIkhDEWp-66">
          <mxGeometry relative="1" as="geometry">
            <Array as="points">
              <mxPoint x="849" y="991" />
            </Array>
          </mxGeometry>
        </mxCell>
        <mxCell id="yyBlptRPI4nCSIkhDEWp-84" value="" style="curved=1;startArrow=none;endArrow=block;exitX=0.5;exitY=1;entryX=0;entryY=0.19;rounded=0;" edge="1" parent="1" source="yyBlptRPI4nCSIkhDEWp-63" target="yyBlptRPI4nCSIkhDEWp-67">
          <mxGeometry relative="1" as="geometry">
            <Array as="points">
              <mxPoint x="144" y="1145" />
            </Array>
          </mxGeometry>
        </mxCell>
        <mxCell id="yyBlptRPI4nCSIkhDEWp-85" value="" style="curved=1;startArrow=none;endArrow=block;exitX=0.5;exitY=1;entryX=0.22;entryY=0;rounded=0;" edge="1" parent="1" source="yyBlptRPI4nCSIkhDEWp-64" target="yyBlptRPI4nCSIkhDEWp-67">
          <mxGeometry relative="1" as="geometry">
            <Array as="points">
              <mxPoint x="371" y="1145" />
            </Array>
          </mxGeometry>
        </mxCell>
        <mxCell id="yyBlptRPI4nCSIkhDEWp-86" value="" style="curved=1;startArrow=none;endArrow=block;exitX=0.5;exitY=1;entryX=0.77;entryY=0;rounded=0;" edge="1" parent="1" source="yyBlptRPI4nCSIkhDEWp-65" target="yyBlptRPI4nCSIkhDEWp-67">
          <mxGeometry relative="1" as="geometry">
            <Array as="points">
              <mxPoint x="601" y="1145" />
            </Array>
          </mxGeometry>
        </mxCell>
        <mxCell id="yyBlptRPI4nCSIkhDEWp-87" value="" style="curved=1;startArrow=none;endArrow=block;exitX=0.5;exitY=1;entryX=1;entryY=0.21;rounded=0;" edge="1" parent="1" source="yyBlptRPI4nCSIkhDEWp-66" target="yyBlptRPI4nCSIkhDEWp-67">
          <mxGeometry relative="1" as="geometry">
            <Array as="points">
              <mxPoint x="849" y="1145" />
            </Array>
          </mxGeometry>
        </mxCell>
        <mxCell id="yyBlptRPI4nCSIkhDEWp-88" value="Changes Detected" style="curved=1;startArrow=none;endArrow=block;exitX=0.5;exitY=1;entryX=0.5;entryY=-0.01;rounded=0;" edge="1" parent="1" source="yyBlptRPI4nCSIkhDEWp-67" target="yyBlptRPI4nCSIkhDEWp-68">
          <mxGeometry relative="1" as="geometry">
            <Array as="points" />
          </mxGeometry>
        </mxCell>
        <mxCell id="yyBlptRPI4nCSIkhDEWp-89" value="" style="curved=1;startArrow=none;endArrow=block;exitX=0.5;exitY=0.99;entryX=0.5;entryY=-0.01;rounded=0;" edge="1" parent="1" source="yyBlptRPI4nCSIkhDEWp-68" target="yyBlptRPI4nCSIkhDEWp-69">
          <mxGeometry relative="1" as="geometry">
            <Array as="points" />
          </mxGeometry>
        </mxCell>
        <mxCell id="yyBlptRPI4nCSIkhDEWp-90" value="" style="curved=1;startArrow=none;endArrow=block;exitX=0.5;exitY=0.99;entryX=0.5;entryY=0;rounded=0;" edge="1" parent="1" source="yyBlptRPI4nCSIkhDEWp-69" target="yyBlptRPI4nCSIkhDEWp-70">
          <mxGeometry relative="1" as="geometry">
            <Array as="points" />
          </mxGeometry>
        </mxCell>
        <mxCell id="yyBlptRPI4nCSIkhDEWp-91" value="" style="curved=1;startArrow=none;endArrow=block;exitX=0.5;exitY=1;entryX=0.5;entryY=-0.01;rounded=0;" edge="1" parent="1" source="yyBlptRPI4nCSIkhDEWp-70" target="yyBlptRPI4nCSIkhDEWp-71">
          <mxGeometry relative="1" as="geometry">
            <Array as="points" />
          </mxGeometry>
        </mxCell>
      </root>
    </mxGraphModel>
  </diagram>
</mxfile>
